<svg width="233" height="65" viewBox="0 0 233 65" fill="none" xmlns="http://www.w3.org/2000/svg">
<path fill-rule="evenodd" clip-rule="evenodd" d="M58.3703 31.0463C58.3671 31.0155 58.3605 30.9852 58.3475 30.9099C58.3377 30.8619 58.3409 30.8756 58.3475 30.9099C57.2375 24.8443 50.1924 21.9703 45.4847 25.6555C46.9571 28.7585 47.4337 32.2967 46.7482 35.6976C49.0563 36.8347 51.0347 38.561 52.5005 40.7187C56.5291 39.5474 59.1212 35.2082 58.3475 30.9099C58.354 30.9475 58.3638 31.0018 58.3703 31.0463ZM40.5453 6.81229C35.4753 6.81229 31.5382 11.9182 32.5502 17.1036C35.681 17.1412 38.8967 18.3683 41.3615 20.3822C43.3921 18.7245 45.932 17.6102 48.4882 17.2575C49.6276 11.9968 45.6937 6.81229 40.5453 6.81229ZM30.7481 24.1353C20.5395 26.4163 23.7748 43.2126 34.0128 40.8631C44.2213 38.5239 40.9893 21.8303 30.7481 24.1353ZM20.6897 23.1212C22.0837 21.2306 24.1045 19.5903 26.1743 18.5731C25.4267 14.8673 26.0535 11.0247 27.8491 7.747C17.9735 2.54794 10.997 18.3879 20.6897 23.1212ZM12.2669 24.2797C7.56582 25.6462 5.01614 31.2151 6.96514 35.8833C9.03819 40.8461 15.1365 42.5897 19.2826 39.3428C17.807 36.2433 17.3336 32.7017 18.0192 29.3007C15.7111 28.1671 13.7295 26.4408 12.2669 24.2797ZM15.9919 47.7472C15.9919 47.7472 15.9821 47.7475 15.9821 47.7441C15.9723 47.7475 15.9755 47.747 15.9657 47.7504C15.9755 47.747 15.9854 47.7472 15.9919 47.7472ZM23.7781 58.1623C29.0015 58.4431 33.2684 53.2854 32.2139 47.898C29.0864 47.8569 25.8707 46.6298 23.4059 44.6194C22.0152 45.753 20.36 46.6606 18.6656 47.1743C18.3033 47.2839 16.6122 47.7125 16.1127 47.7536C15.0223 52.8396 18.9268 57.902 23.7781 58.1623ZM44.0777 41.8772C42.6837 43.7677 40.6629 45.4115 38.5931 46.4253C39.3407 50.1311 38.7106 53.9735 36.9151 57.2545C46.7939 62.4502 53.7672 46.6138 44.0777 41.8772ZM54.9881 47.0474C57.0873 60.0622 42.9579 69.8648 32.3837 62.4327C21.8062 69.8648 7.68009 60.0656 9.77926 47.0474C-3.25975 42.458 -3.25975 22.5388 9.77926 17.9494C7.68009 4.93465 21.8062 -4.86301 32.3837 2.56566C42.9579 -4.86301 57.0873 4.93465 54.9881 17.9494C68.3634 22.6587 68.3112 42.3587 54.9881 47.0474Z" fill="black"/>
<path d="M81.34 46C81.34 41.968 81.34 37.888 81.34 33.76C81.34 29.632 81.34 25.552 81.34 21.52C83.764 21.52 86.212 21.52 88.684 21.52C91.156 21.52 93.604 21.52 96.028 21.52C96.028 22.456 96.028 23.404 96.028 24.364C96.028 25.324 96.028 26.272 96.028 27.208C94.636 27.208 93.232 27.208 91.816 27.208C90.424 27.208 89.032 27.208 87.64 27.208C87.64 27.904 87.64 28.624 87.64 29.368C87.64 30.088 87.64 30.796 87.64 31.492C88.912 31.492 90.196 31.492 91.492 31.492C92.788 31.492 94.06 31.492 95.308 31.492C95.308 32.38 95.308 33.28 95.308 34.192C95.308 35.104 95.308 36.016 95.308 36.928C94.06 36.928 92.788 36.928 91.492 36.928C90.196 36.928 88.912 36.928 87.64 36.928C87.64 38.416 87.64 39.928 87.64 41.464C87.64 43 87.64 44.512 87.64 46C86.608 46 85.564 46 84.508 46C83.452 46 82.396 46 81.34 46ZM99.7928 46C99.7928 41.656 99.7928 37.276 99.7928 32.86C99.7928 28.444 99.7928 24.064 99.7928 19.72C100.777 19.72 101.773 19.72 102.781 19.72C103.789 19.72 104.773 19.72 105.733 19.72C105.733 24.064 105.733 28.444 105.733 32.86C105.733 37.276 105.733 41.656 105.733 46C104.773 46 103.789 46 102.781 46C101.773 46 100.777 46 99.7928 46ZM118.698 46.576C117.306 46.576 116.01 46.336 114.81 45.856C113.61 45.352 112.566 44.656 111.678 43.768C110.79 42.856 110.094 41.8 109.59 40.6C109.11 39.4 108.87 38.092 108.87 36.676C108.87 35.26 109.11 33.952 109.59 32.752C110.094 31.552 110.79 30.508 111.678 29.62C112.566 28.732 113.61 28.048 114.81 27.568C116.01 27.064 117.306 26.812 118.698 26.812C120.114 26.812 121.41 27.064 122.586 27.568C123.786 28.048 124.83 28.732 125.718 29.62C126.606 30.508 127.29 31.552 127.77 32.752C128.274 33.952 128.526 35.26 128.526 36.676C128.526 38.092 128.274 39.4 127.77 40.6C127.29 41.8 126.606 42.856 125.718 43.768C124.83 44.656 123.786 45.352 122.586 45.856C121.41 46.336 120.114 46.576 118.698 46.576ZM118.698 41.212C119.874 41.212 120.81 40.792 121.506 39.952C122.226 39.088 122.586 37.996 122.586 36.676C122.586 35.332 122.226 34.252 121.506 33.436C120.81 32.596 119.874 32.176 118.698 32.176C117.522 32.176 116.574 32.596 115.854 33.436C115.158 34.252 114.81 35.332 114.81 36.676C114.81 37.996 115.158 39.088 115.854 39.952C116.574 40.792 117.522 41.212 118.698 41.212ZM131.464 46C131.464 42.928 131.464 39.832 131.464 36.712C131.464 33.568 131.464 30.46 131.464 27.388C132.448 27.388 133.444 27.388 134.452 27.388C135.46 27.388 136.444 27.388 137.404 27.388C137.404 27.556 137.404 27.724 137.404 27.892C137.404 28.06 137.404 28.228 137.404 28.396C138.148 27.868 138.988 27.472 139.924 27.208C140.86 26.944 141.88 26.872 142.984 26.992C142.984 27.952 142.984 28.924 142.984 29.908C142.984 30.892 142.984 31.864 142.984 32.824C141.088 32.56 139.684 32.728 138.772 33.328C137.86 33.904 137.404 34.852 137.404 36.172C137.404 37.78 137.404 39.412 137.404 41.068C137.404 42.724 137.404 44.368 137.404 46C136.444 46 135.46 46 134.452 46C133.444 46 132.448 46 131.464 46ZM161.512 45.136C159.856 45.832 158.212 46.264 156.58 46.432C154.948 46.6 153.4 46.504 151.936 46.144C150.496 45.808 149.212 45.22 148.084 44.38C146.956 43.54 146.068 42.472 145.42 41.176C144.796 39.88 144.484 38.38 144.484 36.676C144.484 35.26 144.712 33.964 145.168 32.788C145.648 31.588 146.32 30.544 147.184 29.656C148.048 28.744 149.068 28.048 150.244 27.568C151.42 27.064 152.704 26.812 154.096 26.812C155.344 26.812 156.472 27.016 157.48 27.424C158.488 27.832 159.364 28.408 160.108 29.152C160.852 29.872 161.452 30.736 161.908 31.744C162.364 32.752 162.652 33.856 162.772 35.056C162.892 36.256 162.82 37.528 162.556 38.872C160.588 38.872 158.608 38.872 156.616 38.872C154.624 38.872 152.644 38.872 150.676 38.872C151.132 39.784 151.888 40.432 152.944 40.816C154.024 41.2 155.296 41.32 156.76 41.176C158.248 41.032 159.832 40.648 161.512 40.024C161.512 40.864 161.512 41.716 161.512 42.58C161.512 43.444 161.512 44.296 161.512 45.136ZM153.952 32.14C153.256 32.14 152.608 32.332 152.008 32.716C151.432 33.1 150.988 33.688 150.676 34.48C151.756 34.48 152.836 34.48 153.916 34.48C155.02 34.48 156.112 34.48 157.192 34.48C156.904 33.664 156.472 33.076 155.896 32.716C155.344 32.332 154.696 32.14 153.952 32.14ZM180.138 40.24C180.138 41.728 179.718 42.952 178.878 43.912C178.062 44.848 176.958 45.532 175.566 45.964C174.174 46.396 172.614 46.576 170.886 46.504C169.182 46.456 167.442 46.18 165.666 45.676C165.666 44.764 165.666 43.828 165.666 42.868C165.666 41.908 165.666 40.972 165.666 40.06C166.674 40.516 167.682 40.876 168.689 41.14C169.698 41.38 170.61 41.524 171.426 41.572C172.242 41.62 172.902 41.56 173.406 41.392C173.91 41.2 174.162 40.888 174.162 40.456C174.162 40.12 173.946 39.856 173.514 39.664C173.106 39.472 172.566 39.304 171.894 39.16C171.222 38.992 170.502 38.8 169.734 38.584C168.99 38.344 168.282 38.02 167.61 37.612C166.938 37.18 166.386 36.616 165.954 35.92C165.546 35.2 165.342 34.276 165.342 33.148C165.342 31.804 165.726 30.664 166.494 29.728C167.286 28.768 168.342 28.048 169.662 27.568C170.982 27.064 172.458 26.812 174.09 26.812C175.722 26.812 177.39 27.088 179.094 27.64C179.094 28.552 179.094 29.488 179.094 30.448C179.094 31.408 179.094 32.344 179.094 33.256C177.75 32.608 176.49 32.176 175.314 31.96C174.138 31.744 173.19 31.72 172.47 31.888C171.75 32.032 171.39 32.356 171.39 32.86C171.39 33.196 171.594 33.46 172.002 33.652C172.434 33.82 172.974 33.976 173.622 34.12C174.294 34.264 175.002 34.456 175.746 34.696C176.514 34.936 177.222 35.272 177.87 35.704C178.542 36.112 179.082 36.688 179.49 37.432C179.922 38.152 180.138 39.088 180.138 40.24ZM181.995 36.676C181.995 34.852 182.367 33.256 183.111 31.888C183.855 30.496 184.887 29.38 186.207 28.54C187.527 27.7 189.063 27.196 190.815 27.028C192.567 26.836 194.439 27.04 196.431 27.64C196.431 28.552 196.431 29.476 196.431 30.412C196.431 31.348 196.431 32.272 196.431 33.184C195.039 32.512 193.707 32.2 192.435 32.248C191.163 32.296 190.119 32.692 189.303 33.436C188.487 34.156 188.079 35.236 188.079 36.676C188.079 38.116 188.487 39.208 189.303 39.952C190.119 40.672 191.163 41.056 192.435 41.104C193.707 41.128 195.039 40.816 196.431 40.168C196.431 41.08 196.431 42.004 196.431 42.94C196.431 43.876 196.431 44.8 196.431 45.712C194.439 46.312 192.567 46.516 190.815 46.324C189.063 46.156 187.527 45.652 186.207 44.812C184.887 43.972 183.855 42.868 183.111 41.5C182.367 40.108 181.995 38.5 181.995 36.676ZM215.969 45.136C214.313 45.832 212.669 46.264 211.037 46.432C209.405 46.6 207.857 46.504 206.393 46.144C204.953 45.808 203.669 45.22 202.541 44.38C201.413 43.54 200.525 42.472 199.877 41.176C199.253 39.88 198.941 38.38 198.941 36.676C198.941 35.26 199.169 33.964 199.625 32.788C200.105 31.588 200.777 30.544 201.641 29.656C202.505 28.744 203.525 28.048 204.701 27.568C205.877 27.064 207.161 26.812 208.553 26.812C209.801 26.812 210.929 27.016 211.937 27.424C212.945 27.832 213.821 28.408 214.565 29.152C215.309 29.872 215.909 30.736 216.365 31.744C216.821 32.752 217.109 33.856 217.229 35.056C217.349 36.256 217.277 37.528 217.013 38.872C215.045 38.872 213.065 38.872 211.073 38.872C209.081 38.872 207.101 38.872 205.133 38.872C205.589 39.784 206.345 40.432 207.401 40.816C208.481 41.2 209.753 41.32 211.217 41.176C212.705 41.032 214.289 40.648 215.969 40.024C215.969 40.864 215.969 41.716 215.969 42.58C215.969 43.444 215.969 44.296 215.969 45.136ZM208.409 32.14C207.713 32.14 207.065 32.332 206.465 32.716C205.889 33.1 205.445 33.688 205.133 34.48C206.213 34.48 207.293 34.48 208.373 34.48C209.477 34.48 210.569 34.48 211.649 34.48C211.361 33.664 210.929 33.076 210.353 32.716C209.801 32.332 209.153 32.14 208.409 32.14ZM220.375 46C220.375 42.928 220.375 39.832 220.375 36.712C220.375 33.568 220.375 30.46 220.375 27.388C221.359 27.388 222.355 27.388 223.363 27.388C224.371 27.388 225.355 27.388 226.315 27.388C226.315 27.556 226.315 27.724 226.315 27.892C226.315 28.06 226.315 28.228 226.315 28.396C227.059 27.868 227.899 27.472 228.835 27.208C229.771 26.944 230.791 26.872 231.895 26.992C231.895 27.952 231.895 28.924 231.895 29.908C231.895 30.892 231.895 31.864 231.895 32.824C229.999 32.56 228.595 32.728 227.683 33.328C226.771 33.904 226.315 34.852 226.315 36.172C226.315 37.78 226.315 39.412 226.315 41.068C226.315 42.724 226.315 44.368 226.315 46C225.355 46 224.371 46 223.363 46C222.355 46 221.359 46 220.375 46Z" fill="black"/>
</svg>
